PathFileType	4	(X/Y/Z)	D:\Share\Shared_Data\Ergonomics\Sit To Stand Pertubation\S1\S1 Cal 01.trc
DataRate	CameraRate	NumFrames	NumMarkers	Units	OrigDataRate	OrigDataStartFrame	OrigNumFrames	
100	100	18	21	mm	100	30	237
Frame#	Time	R_ASIS			R_Pelvis			V_Sacral			L_Pelvis			L_ASIS			Clavical			R_Acromium			L_Acromium			Sternum			Torso			R_Thigh_Med			R_Thigh_Lat			R_Thigh			R_Shank_Med			R_Shank_Lat			R_Shank			R_Heel			R_Toe			RAJC			RHJC			RKJC			
		X1	Y1	Z1	X2	Y2	Z2	X3	Y3	Z3	X4	Y4	Z4	X5	Y5	Z5	X6	Y6	Z6	X7	Y7	Z7	X8	Y8	Z8	X9	Y9	Z9	X10	Y10	Z10	X11	Y11	Z11	X12	Y12	Z12	X13	Y13	Z13	X14	Y14	Z14	X15	Y15	Z15	X16	Y16	Z16	X17	Y17	Z17	X18	Y18	Z18	X19	Y19	Z19	X20	Y20	Z20	X21	Y21	Z21	

30	0.29	443.34753	912.47052	67.48175	376.0957	912.29071	92.11219	302.76782	908.30157	-67.337349	423.75754	899.87903	-195.0383	500.70148	898.53333	-129.18443	456.97025	1253.6487	-43.561863	361.11856	1318.766	91.806404	412.73462	1322.3246	-184.76096	422.98505	1264.2019	54.027157	464.6301	1260.3987	-104.10133	334.715	419.29395	3.2725558	358.10541	442.35483	129.80214	447.03201	599.24524	76.354858	330.90176	96.431023	51.036697	308.94553	96.724731	129.36658	322.08905	308.97571	149.00249	263.60184	39.666088	75.77153	469.52628	50.049892	91.485298	319.923645	96.577877	90.2016385	399.5054992	838.8498016	31.09041439	346.410205	430.82439	66.5373479
31	0.3	443.33484	912.48499	67.670731	376.0563	912.33551	92.231842	302.9129	908.38556	-67.271561	423.99042	899.8465	-194.91263	500.87845	898.49915	-128.83609	457.00281	1253.6654	-43.6217	360.93076	1318.7268	91.62561	412.85803	1322.2174	-184.92128	422.92905	1264.2427	53.924335	464.72824	1260.3279	-104.19092	334.68597	419.32053	3.3310127	358.01898	442.36627	129.88857	446.92764	599.25818	76.514481	330.93829	96.466515	51.083485	308.92911	96.705482	129.36911	322.02734	308.97296	149.06111	263.58966	39.665188	75.804909	469.51361	50.048401	91.500389	319.9337	96.5859985	90.2262975	399.4916021	838.9157908	31.25237768	346.352475	430.8434	66.60979135
32	0.31	443.38657	912.50342	67.888557	376.01807	912.36816	92.369461	303.06903	908.46252	-67.220863	424.20917	899.80884	-194.90564	500.98877	898.51086	-128.52457	457.04031	1253.6799	-43.693222	360.75421	1318.6721	91.51152	413.00339	1322.03	-185.13542	422.85892	1264.2794	53.807774	464.79791	1260.2698	-104.28163	334.6575	419.32782	3.3768804	357.94031	442.36118	130.0049	446.84799	599.26947	76.679749	330.93311	96.481659	51.103661	308.92117	96.706528	129.3622	321.98254	308.97916	149.13589	263.59445	39.635742	75.841721	469.51862	50.066666	91.479591	319.92714	96.5940935	90.2329305	399.5319323	838.9772271	31.45901853	346.298905	430.8445	66.6908902
33	0.32	443.41702	912.51874	68.07029	376.02063	912.40717	92.515488	303.21255	908.547	-67.144928	424.41943	899.80597	-194.60674	501.14417	898.55865	-128.15359	457.07892	1253.6844	-43.771141	360.60095	1318.5719	91.323807	413.06982	1321.8873	-185.30664	422.79773	1264.2899	53.713375	464.88333	1260.2202	-104.36939	334.63733	419.35541	3.4758961	357.86591	442.3631	130.05006	446.77103	599.28009	76.841309	330.94583	96.512146	51.136757	308.90128	96.706596	129.37309	321.93359	308.97076	149.17616	263.58374	39.671719	75.762772	469.51819	50.058533	91.512634	319.923555	96.609371	90.2549235	399.5681953	839.058711	31.60969022	346.25162	430.859255	66.76297805
34	0.33	443.44772	912.51416	68.243172	376.05481	912.42548	92.598198	303.33987	908.56714	-67.013336	424.61676	899.79218	-194.38876	501.24664	898.62128	-127.79079	457.11288	1253.6849	-43.855888	360.42657	1318.4288	91.250107	413.164	1322.8615	-190.3481	422.73773	1264.2552	53.610477	464.92859	1260.1185	-104.47861	334.60461	419.36407	3.5621815	357.79922	442.39349	130.04683	446.73218	599.26727	77.010155	330.93326	96.516335	51.150326	308.87921	96.716103	129.37938	321.86703	308.96408	149.22169	263.58694	39.671429	75.74366	469.52121	50.056538	91.51284	319.906235	96.616219	90.264853	399.6278158	839.1112007	31.76334376	346.201915	430.87878	66.80450575
35	0.34	443.48557	912.5224	68.447159	376.07849	912.43823	92.725716	303.45868	908.60876	-66.905602	424.82709	899.77594	-194.15689	501.35248	898.65186	-127.46625	457.15289	1253.6842	-43.927929	360.32504	1318.3229	91.167351	413.18784	1321.5922	-185.66028	422.68701	1264.2219	53.538979	464.96756	1260.0459	-104.55195	334.5639	419.37088	3.6724672	357.72046	442.38168	130.12967	446.69128	599.27747	77.19178	330.93335	96.524467	51.158333	308.87158	96.696274	129.39018	321.828	308.94351	149.28894	263.58362	39.632092	75.81012	469.51239	50.063847	91.516129	319.902465	96.6103705	90.2742565	399.6727172	839.1601435	31.95158243	346.14218	430.87628	66.9010686
36	0.35	443.51797	912.50244	68.679184	376.09866	912.44476	92.937195	303.58429	908.65289	-66.818832	425.01395	899.58038	-194.46404	501.44922	898.6568	-127.22668	457.1969	1253.6964	-44.005962	360.23206	1318.1666	91.120346	413.0575	1321.2626	-186.11829	422.64746	1264.1772	53.461052	464.93869	1259.9442	-104.65418	334.53503	419.36902	3.7528455	357.69443	442.37042	130.26352	446.67633	599.26477	77.368408	330.89587	96.511421	51.145653	308.85721	96.668175	129.3969	321.79578	308.92645	149.34744	263.58459	39.635445	75.79705	469.50735	50.069244	91.521416	319.87654	96.589798	90.2712765	399.701836	839.1583426	32.15327969	346.11473	430.86972	67.00818275
37	0.36	443.54715	912.48828	68.85862	376.17722	912.43805	93.134911	303.67862	908.62152	-66.682312	425.21158	899.71259	-193.69936	501.54556	898.63007	-127.04705	457.233	1253.6846	-44.08427	360.17108	1318.0027	91.02372	413.02051	1321.1929	-186.24057	422.62378	1264.1361	53.380466	464.88324	1259.8444	-104.73467	334.50308	419.36984	3.8568041	357.6272	442.34531	130.29893	446.61279	599.20752	77.538895	330.90808	96.532974	51.179451	308.83548	96.648041	129.412	321.76868	308.91852	149.42354	263.57614	39.635571	75.780899	469.51947	50.071564	91.507683	319.87178	96.5905075	90.2957255	399.7516769	839.1332556	32.32299492	346.06514	430.857575	67.07786705
38	0.37	443.60934	912.48151	69.026039	376.20773	912.43524	93.348663	303.79666	908.61578	-66.53112	425.40811	899.6781	-193.36514	501.71899	898.57056	-126.89146	457.25467	1253.6743	-44.156849	360.10065	1317.88	90.958519	412.96451	1321.1667	-186.2789	422.61658	1264.1127	53.332539	464.79422	1259.7562	-104.78295	334.48547	419.37418	3.9427433	357.60434	442.31653	130.37328	446.60001	599.17828	77.660774	330.89978	96.538383	51.194454	308.84137	96.63765	129.41942	321.76929	308.89844	149.48901	263.56152	39.627777	75.807655	469.49405	50.083153	91.541771	319.870575	96.5880165	90.306937	399.8209696	839.1123923	32.47583736	346.044905	430.845355	67.15801165
39	0.38	443.5993	912.45844	69.127357	376.26529	912.43018	93.560478	303.89468	908.58881	-66.398544	425.51559	899.64435	-193.3322	501.57135	898.49048	-126.89758	457.26169	1253.6736	-44.232971	360.0481	1317.8137	90.90403	412.86722	1321.1382	-186.34996	422.5968	1264.0975	53.291435	464.70398	1259.6697	-104.87035	334.49725	419.39249	4.0682206	357.62134	442.29211	130.37328	446.64243	599.177	77.782532	330.88861	96.540482	51.185555	308.83908	96.626122	129.4279	321.77441	308.8858	149.53169	263.56555	39.626377	75.764999	469.46835	50.057968	91.513382	319.863845	96.583302	90.3067275	399.8108173	839.0713038	32.62898891	346.059295	430.8423	67.2207503
40	0.39	443.71207	912.43964	69.237381	376.35089	912.43713	93.726685	303.99228	908.56378	-66.271751	425.63239	899.57916	-193.31425	501.72998	898.39874	-126.79058	457.23874	1253.6925	-44.311466	359.99539	1317.7875	90.862038	412.73712	1321.1392	-186.38324	422.60172	1264.1099	53.225952	464.58417	1259.6266	-104.96453	334.54395	419.40216	4.1457586	357.65091	442.26456	130.44827	446.69815	599.17651	77.865959	330.8862	96.549248	51.210678	308.85245	96.638779	129.45184	321.79077	308.87726	149.61508	263.56863	39.629017	75.706841	469.50824	50.092113	91.54425	319.869325	96.5940135	90.331259	399.9087362	839.0446319	32.74617067	346.09743	430.83336	67.2970143
41	0.4	443.82736	912.45026	69.331757	376.44016	912.44543	93.881416	304.07697	908.52643	-66.120941	425.73529	899.54358	-193.14635	502.24274	898.32373	-126.52916	457.19983	1253.6914	-44.402679	359.94125	1317.7761	90.761299	412.59186	1321.1511	-186.42876	422.60449	1264.1299	53.170631	464.4834	1259.6041	-105.06835	334.58371	419.44968	4.2183561	357.77258	442.26373	130.50952	446.79532	599.18756	77.970436	330.884	96.56601	51.216339	308.85263	96.637657	129.46884	321.85199	308.88092	149.67899	263.57626	39.652428	75.7873	469.51306	50.071404	91.523476	319.868315	96.6018335	90.3425895	400.0531519	839.0466232	32.7749614	346.178145	430.856705	67.36393805
42	0.41	443.95721	912.46149	69.416893	376.57632	912.4679	93.98526	304.21399	908.54022	-65.987038	425.82324	899.5191	-192.97411	502.42145	898.26056	-126.40214	457.12085	1253.6925	-44.485332	359.88461	1317.8048	90.676254	412.4512	1321.1575	-186.45114	422.57401	1264.1732	53.09647	464.38272	1259.6045	-105.16319	334.67828	419.46753	4.3369827	357.9151	442.25543	130.561	446.93533	599.20447	78.047676	330.88065	96.582916	51.217636	308.86536	96.651291	129.48225	321.93652	308.86679	149.74956	263.57651	39.652325	75.79644	469.49826	50.075867	91.529633	319.873005	96.6171035	90.349943	400.1707774	839.0649317	32.87175527	346.29669	430.86148	67.44899135
43	0.42	444.12939	912.46497	69.464699	376.75073	912.47882	94.092278	304.35046	908.53741	-65.813538	425.88602	899.50299	-192.87213	502.71887	898.15863	-126.18567	457.02911	1253.686	-44.574055	359.81433	1317.8564	90.58976	412.31473	1321.1808	-186.44949	422.52307	1264.2023	53.01614	464.28683	1259.6508	-105.22388	334.75601	419.49966	4.4110899	358.07343	442.25916	130.67445	447.08658	599.21954	78.143051	330.89886	96.601112	51.237217	308.8764	96.649345	129.51189	322.03867	308.86697	149.76918	263.57651	39.665447	75.77401	469.49307	50.088051	91.53476	319.88763	96.6252285	90.3745535	400.3273396	839.1000917	32.93019454	346.41472	430.87941	67.54276995
44	0.43	444.33377	912.47058	69.492256	376.96466	912.49512	94.201088	304.47037	908.5415	-65.652199	425.94916	899.47095	-192.76399	502.98572	898.00824	-126.07507	456.91522	1253.674	-44.640339	359.74323	1317.905	90.51609	412.1557	1321.2175	-186.47122	422.47931	1264.2665	52.954258	464.19131	1259.6976	-105.28024	334.82892	419.54443	4.4247775	358.22156	442.2663	130.73526	447.25516	599.2066	78.209183	330.88269	96.604744	51.212402	308.90991	96.674873	129.52721	322.16711	308.854	149.82828	263.58801	39.656952	75.801254	469.4845	50.091328	91.534485	319.8963	96.6398085	90.369806	400.4863988	839.1198511	32.98821744	346.52524	430.905365	67.58001875
45	0.44	444.57922	912.46417	69.487648	377.18915	912.51031	94.298096	304.59091	908.56757	-65.503937	425.98843	899.46875	-192.67195	502.99365	898.01038	-126.0128	456.7861	1253.6536	-44.718979	359.68893	1317.9514	90.431053	412.00006	1321.2427	-186.47008	422.41864	1264.3311	52.90863	464.1037	1259.718	-105.34748	334.92133	419.57117	4.4854641	358.42795	442.26981	130.78708	447.42325	599.21881	78.231934	330.90451	96.620125	51.234566	308.92261	96.683533	129.52888	322.29401	308.84756	149.86165	263.577	39.676453	75.79287	469.51099	50.080246	91.533661	319.91356	96.651829	90.381723	400.6811164	839.1643757	33.0444515	346.67464	430.92049	67.63627205
46	0.45	444.77103	912.44849	69.462837	377.43216	912.50897	94.402725	304.70245	908.56555	-65.346512	426.00055	899.43481	-192.62321	503.00003	898.00867	-125.94373	456.63364	1253.6147	-44.779045	359.59216	1317.9998	90.374008	411.86185	1321.2568	-186.44621	422.35883	1264.3801	52.858971	464.04062	1259.7681	-105.39861	335.0405	419.58389	4.5853314	358.6282	442.24228	130.79773	447.63852	599.21136	78.249321	330.90344	96.620338	51.231895	308.95029	96.69503	129.55557	322.44812	308.83246	149.91658	263.58884	39.688778	75.714478	469.49561	50.043682	91.483185	319.926865	96.657684	90.3937325	400.847345	839.1959753	33.07316183	346.83435	430.913085	67.6915307
47	0.46	444.96298	912.43518	69.449791	377.68704	912.49628	94.483177	304.81879	908.53119	-65.221924	426.00806	899.43787	-192.55658	503.04474	897.96851	-125.94937	456.4949	1253.5869	-44.834126	359.50021	1318.0205	90.331299	411.72739	1321.2849	-186.44888	422.31573	1264.4102	52.80468	463.96381	1259.8262	-105.44875	335.15436	419.62021	4.6193337	358.83432	442.24182	130.8623	447.85974	599.20758	78.226997	330.89719	96.626465	51.200054	308.97742	96.702202	129.5789	322.58923	308.81018	149.95198	263.59979	39.680378	75.7705	469.52875	50.061646	91.509117	319.937305	96.6643335	90.389477	401.0196528	839.190915	33.1104345	346.99434	430.931015	67.74081685
